<?xml version="1.0" standalone="no"?>
<!DOCTYPE svg PUBLIC "-//W3C//DTD SVG 20010904//EN"
 "http://www.w3.org/TR/2001/REC-SVG-20010904/DTD/svg10.dtd">
<svg version="1.0" xmlns="http://www.w3.org/2000/svg"
 width="1024.000000pt" height="1024.000000pt" viewBox="0 0 1024.000000 1024.000000"
 preserveAspectRatio="xMidYMid meet">

<g transform="translate(0.000000,1024.000000) scale(0.100000,-0.100000)"
fill="#000000" stroke="none">
<path d="M2195 8270 c-11 -17 -7 -3792 4 -3803 14 -14 40 4 110 80 35 37 260
265 500 506 l436 438 5 867 5 867 1260 0 c1401 0 1313 4 1500 -68 121 -46 192
-92 286 -186 141 -141 198 -281 198 -486 1 -123 -19 -218 -63 -310 -115 -242
-353 -392 -696 -441 -71 -10 -248 -14 -711 -14 l-616 0 -1107 -1105 c-819
-818 -1110 -1114 -1117 -1138 -5 -18 -9 -298 -9 -634 0 -534 2 -603 16 -617
14 -14 190 -16 1788 -16 1167 0 1818 4 1907 11 390 31 739 148 1031 345 62 42
142 102 178 133 36 32 75 66 88 77 31 25 177 194 229 264 98 131 208 358 256
526 82 285 76 575 -17 856 -44 133 -89 225 -175 353 -84 127 -280 329 -394
406 -45 30 -83 62 -85 70 -1 8 32 46 75 84 251 224 429 526 499 845 15 69 19
128 19 315 0 203 -3 242 -23 335 -101 461 -366 837 -777 1106 -295 192 -585
290 -990 333 -137 15 -3601 15 -3610 1z m3698 -3565 c234 -35 429 -140 552
-296 94 -119 134 -226 142 -379 11 -217 -48 -374 -196 -520 -130 -128 -274
-199 -481 -235 -71 -12 -268 -15 -1264 -15 -650 0 -1187 0 -1193 0 -7 0 -13 6
-13 13 0 11 1400 1418 1431 1438 8 5 219 9 469 9 350 0 478 -4 553 -15z"/>
</g>
</svg>
