<?xml version="1.0" encoding="UTF-8"?>
<svg version="1.1" xmlns="http://www.w3.org/2000/svg" width="512" height="512">
<path d="M0 0 C0.98956625 -0.00445784 1.97913249 -0.00891569 2.9986856 -0.01350862 C4.09379651 -0.01332426 5.18890743 -0.01313989 6.31720352 -0.01294994 C7.47440785 -0.01662663 8.63161217 -0.02030332 9.8238833 -0.02409142 C13.04583426 -0.03322961 16.26775529 -0.03783044 19.48971701 -0.04048073 C22.96086643 -0.04437969 26.43200104 -0.05395832 29.90314102 -0.0626936 C38.29098471 -0.08246984 46.67882962 -0.0925258 55.0666908 -0.10142139 C59.01484276 -0.10580249 62.96299337 -0.11116977 66.91114426 -0.11641026 C80.03266878 -0.13342389 93.15419246 -0.14791853 106.27572632 -0.155159 C109.68198777 -0.15706895 113.08824922 -0.15898927 116.49451065 -0.16094494 C117.34114038 -0.16142868 118.18777011 -0.16191242 119.06005529 -0.16241082 C132.77788562 -0.17071283 146.49562881 -0.19605202 160.21342108 -0.22852562 C174.29120962 -0.26158022 188.36895384 -0.27960632 202.4467814 -0.28280324 C210.3533889 -0.28496985 218.25986933 -0.29374047 226.16643906 -0.31926441 C232.89952496 -0.34094964 239.63245293 -0.34903264 246.3655698 -0.33929763 C249.80130258 -0.33474649 253.23670935 -0.33668575 256.67239761 -0.35605907 C260.39705057 -0.3736653 264.12087135 -0.36672634 267.84552383 -0.35352612 C268.93171186 -0.36449536 270.01789989 -0.37546461 271.13700271 -0.38676625 C277.18608341 -0.3348596 280.72857775 0.09155275 285.33533096 4.13422108 C288.18555834 7.74243142 287.6235144 12.23501261 287.60998917 16.63129139 C287.61765556 17.91499371 287.61765556 17.91499371 287.62547684 19.2246294 C287.6393765 22.05393947 287.63841527 24.88300592 287.63611221 27.71234608 C287.63999997 29.68286702 287.6443348 31.65338712 287.64909744 33.62390614 C287.65656122 37.75644107 287.65626798 41.88889058 287.65100479 46.02142811 C287.645221 51.30506923 287.66211404 56.58835856 287.68534946 61.87194157 C287.70011928 65.94356789 287.70095389 70.01511024 287.69783974 74.08675861 C287.69835168 76.03391432 287.70356549 77.98107489 287.71365166 79.92820454 C287.72605671 82.65888902 287.71919926 85.38889809 287.70764542 88.11957264 C287.71528915 88.91674198 287.72293289 89.71391132 287.73080826 90.53523731 C287.63755009 100.5609927 283.30008085 107.99162923 276.81579971 115.37250233 C274.76329785 117.81492539 273.07657557 120.46431268 271.33533096 123.13422108 C270.01666825 124.81251908 268.68452629 126.48036875 267.33533096 128.13422108 C265.87778548 130.05818112 264.4384902 131.99176309 263.02283096 133.94672108 C261.01043267 136.55538554 258.83718769 138.99657513 256.64001846 141.45062733 C255.1247508 143.21404304 255.1247508 143.21404304 254.33533096 146.13422108 C252.68989316 147.82184959 251.02244519 149.48825597 249.33533096 151.13422108 C247.39734833 153.90682406 247.39734833 153.90682406 246.33533096 156.13422108 C245.67533096 156.79422108 245.01533096 157.45422108 244.33533096 158.13422108 C240.77193899 161.97842383 238.22224104 165.1992255 236.33533096 170.13422108 C235.34533096 170.46422108 234.35533096 170.79422108 233.33533096 171.13422108 C231.8667997 172.98703673 231.8667997 172.98703673 230.52283096 175.25922108 C228.11119346 179.05498135 225.51740355 182.35632864 222.43689346 185.62640858 C221.04037512 187.22673253 221.04037512 187.22673253 221.33533096 190.13422108 C222.48048932 191.54882846 223.63495452 192.9570948 224.83923721 194.32172108 C226.53344862 196.37423829 227.95337458 198.52454046 229.39783096 200.75922108 C231.47538355 203.9391485 233.60190452 206.48896968 236.33533096 209.13422108 C237.6637464 210.91082531 238.93257812 212.71874081 240.18689346 214.54828358 C241.38105152 216.28526864 241.38105152 216.28526864 243.33533096 218.13422108 C245.33533096 220.13422108 245.33533096 220.13422108 246.21033096 221.94672108 C248.02603274 225.47725231 250.53945943 228.33834955 253.33533096 231.13422108 C254.29249002 232.5376801 255.22748563 233.95635022 256.14783096 235.38422108 C259.19289105 240.00764971 262.41179368 244.2106838 266.33533096 248.13422108 C267.62963759 249.8931506 268.87041155 251.68470289 270.11658096 253.47797108 C271.37238178 255.27156656 271.37238178 255.27156656 273.33533096 257.13422108 C274.31230042 258.58013587 275.2684186 260.04022823 276.21033096 261.50922108 C277.85763811 264.03215993 279.22895332 266.0372297 281.46033096 268.07172108 C289.43168886 276.84021477 287.90214329 289.39781947 287.83142471 300.40375233 C287.83157988 302.37288434 287.83307184 304.34201666 287.8358345 306.31114674 C287.83721338 310.42052318 287.8247407 314.5295484 287.8018837 318.63885975 C287.77340683 323.90248785 287.77626864 329.16553717 287.78897381 334.42920876 C287.79592876 338.48786324 287.78814534 342.54638406 287.77571678 346.60502148 C287.7712071 348.5462712 287.77086126 350.48753528 287.77478218 352.42878628 C287.77769497 355.13794519 287.76118759 357.84630572 287.7393837 360.55536366 C287.74613617 361.75315701 287.74613617 361.75315701 287.75302505 362.9751482 C287.69196653 367.54488391 287.14245772 370.48741221 284.33533096 374.13422108 C280.35404605 377.73022036 276.74390215 378.25789673 271.50265312 378.26564884 C270.03845607 378.27141056 270.03845607 378.27141056 268.54467928 378.27728868 C266.93993355 378.27598895 266.93993355 378.27598895 265.30276871 378.27466297 C263.59502559 378.27911965 263.59502559 378.27911965 261.85278261 378.28366637 C258.02355307 378.29236403 254.19435476 378.29386252 250.36511612 378.29535389 C247.62552582 378.29944307 244.88593882 378.30498511 242.14635086 378.31039906 C234.69394483 378.32397715 227.24154417 378.33000605 219.78912783 378.33440971 C215.13630846 378.33717257 210.48349118 378.34140996 205.83067322 378.34591389 C192.94926013 378.35810501 180.06784871 378.36840519 167.18642998 378.37178898 C166.36211629 378.37200854 165.53780261 378.37222811 164.68850973 378.37245433 C163.44908173 378.37278175 163.44908173 378.37278175 162.18461478 378.37311578 C160.51024413 378.37355924 158.83587348 378.37400581 157.16150284 378.37445545 C156.33095719 378.37467688 155.50041153 378.37489831 154.64469783 378.37512645 C141.18243918 378.37907573 127.72023462 378.3965344 114.25799687 378.41981497 C100.43778745 378.44352183 86.61760517 378.4559905 72.79737508 378.4571569 C65.03725766 378.45807394 57.27721074 378.46383379 49.51711273 378.48197651 C42.91035412 378.4973684 36.30368782 378.50250331 29.69691469 378.49423841 C26.3259884 378.49032882 22.95539937 378.49290474 19.58447075 378.50529575 C15.93010606 378.51794286 12.27622139 378.51217745 8.6218605 378.50171375 C7.55649146 378.50977016 6.49112241 378.51782656 5.39346945 378.5261271 C-0.82131911 378.48439416 -5.47028796 377.97957239 -10.30920029 373.66937733 C-14.27834592 368.66480239 -14.78876485 365.42488979 -14.7960968 359.14865112 C-14.79993795 357.91536518 -14.80377909 356.68207924 -14.80773664 355.411421 C-14.8069564 354.04063454 -14.80607761 352.66984812 -14.80511093 351.29906178 C-14.80769462 349.84454307 -14.8107078 348.39002508 -14.81411433 346.93550807 C-14.82218699 342.93330065 -14.82397405 338.93111115 -14.8247118 334.92889655 C-14.82656187 330.614541 -14.83410893 326.30019477 -14.84084702 321.98584461 C-14.85443232 312.54996327 -14.86045524 303.11408617 -14.86485767 293.67819667 C-14.86761952 287.78780798 -14.87185675 281.89742093 -14.87636185 276.00703335 C-14.88855432 259.7019988 -14.89885397 243.39696558 -14.90223694 227.09192657 C-14.9024565 226.04826122 -14.90267607 225.00459587 -14.90290229 223.92930429 C-14.90312057 222.88312827 -14.90333885 221.83695224 -14.90356374 220.75907391 C-14.90400721 218.63908716 -14.90445377 216.51910041 -14.90490341 214.39911366 C-14.90512484 213.34752482 -14.90534627 212.29593598 -14.90557441 211.21248082 C-14.90952343 194.16844733 -14.92698073 177.12445657 -14.95026293 160.08043959 C-14.97396704 142.58655548 -14.98643834 125.09269281 -14.98760486 107.59879237 C-14.9885221 97.77458164 -14.99428686 87.9504266 -15.01242447 78.12623119 C-15.02781269 69.76171419 -15.03295345 61.39727009 -15.02468637 53.03274163 C-15.02077545 48.76455508 -15.02173099 44.49651538 -15.03574371 40.22834682 C-15.04845601 36.32057773 -15.04730876 32.41306624 -15.035153 28.50529764 C-15.03319137 27.09210979 -15.03629596 25.67890385 -15.04499736 24.26574143 C-15.12172315 10.96203664 -15.12172315 10.96203664 -11.66466904 5.13422108 C-7.73892939 1.49573068 -5.28864397 0.01101546 0 0 Z M68.33533096 82.13422108 C68.33533096 82.46422108 68.33533096 82.79422108 68.33533096 83.13422108 C109.91533096 83.13422108 151.49533096 83.13422108 194.33533096 83.13422108 C194.33533096 82.80422108 194.33533096 82.47422108 194.33533096 82.13422108 C152.75533096 82.13422108 111.17533096 82.13422108 68.33533096 82.13422108 Z M68.33533096 84.13422108 C68.33533096 153.43422108 68.33533096 222.73422108 68.33533096 294.13422108 C68.66533096 294.13422108 68.99533096 294.13422108 69.33533096 294.13422108 C69.33533096 224.83422108 69.33533096 155.53422108 69.33533096 84.13422108 C69.00533096 84.13422108 68.67533096 84.13422108 68.33533096 84.13422108 Z M70.33533096 84.13422108 C70.33533096 153.43422108 70.33533096 222.73422108 70.33533096 294.13422108 C110.26533096 294.13422108 150.19533096 294.13422108 191.33533096 294.13422108 C191.66533096 293.47422108 191.99533096 292.81422108 192.33533096 292.13422108 C187.7399331 286.2047019 187.7399331 286.2047019 183.08533096 280.32172108 C180.94895218 277.6512476 178.91439358 274.91093706 176.87048721 272.16937733 C174.72503163 269.2954912 172.57591448 266.43495048 170.33533096 263.63422108 C168.0854689 260.8218935 165.93831519 257.94225032 163.78454971 255.05609608 C162.01544743 252.71000895 160.17853965 250.4223422 158.33533096 248.13422108 C157.33181527 246.80353177 156.33216203 245.46992524 155.33533096 244.13422108 C154.84033096 243.47422108 154.34533096 242.81422108 153.83533096 242.13422108 C152.33533096 240.13422108 150.83533096 238.13422108 149.33533096 236.13422108 C148.87255753 235.5180492 148.40978409 234.90187733 147.93298721 234.26703358 C146.66678675 232.57670239 145.40463468 230.88333872 144.14392471 229.18890858 C143.36146378 228.1396117 142.57900284 227.09031483 141.77283096 226.00922108 C140.9877919 224.95476795 140.20275284 223.90031483 139.39392471 222.81390858 C137.44638216 220.15862683 137.44638216 220.15862683 135.33533096 218.13422108 C134.32127839 216.81154381 133.32264838 215.47697276 132.33533096 214.13422108 C131.33577281 212.80055647 130.33572516 211.46725867 129.33533096 210.13422108 C128.85193253 209.48582264 128.36853409 208.8374242 127.87048721 208.16937733 C127.38451065 207.51840076 126.89853409 206.8674242 126.39783096 206.19672108 C125.87833878 205.49418201 125.35884659 204.79164295 124.82361221 204.06781483 C123.28243994 201.99735675 123.28243994 201.99735675 121.08533096 199.75922108 C117.85227197 194.90963259 116.96471074 188.91242754 117.46033096 183.13422108 C118.33533096 180.13422108 118.33533096 180.13422108 120.21033096 179.00922108 C120.91158096 178.72047108 121.61283096 178.43172108 122.33533096 178.13422108 C123.94440204 175.75809243 123.94440204 175.75809243 125.33533096 173.13422108 C126.31561713 171.7863276 127.31504231 170.45209392 128.33533096 169.13422108 C128.98501846 168.23703358 128.98501846 168.23703358 129.64783096 167.32172108 C131.64604308 164.73144612 133.77876804 162.27899653 135.93298721 159.81781483 C137.51735838 157.97634497 137.51735838 157.97634497 139.33533096 155.13422108 C140.32840917 153.79572436 141.32890148 152.46270799 142.33533096 151.13422108 C142.7671669 150.54769764 143.19900284 149.9611742 143.64392471 149.35687733 C146.44250152 145.67930181 149.42662279 142.15347075 152.37439346 138.59515858 C154.333038 136.3118345 154.333038 136.3118345 155.33533096 134.13422108 C158.46064196 129.78179411 161.95797329 125.71918681 165.37439346 121.59515858 C167.333038 119.3118345 167.333038 119.3118345 168.33533096 117.13422108 C168.99533096 116.14422108 169.65533096 115.15422108 170.33533096 114.13422108 C169.84033096 113.14422108 169.84033096 113.14422108 169.33533096 112.13422108 C169.93087784 112.04914295 170.52642471 111.96406483 171.14001846 111.87640858 C173.96386987 110.92172572 174.76680213 109.67981465 176.46033096 107.25922108 C176.95790909 106.5605492 177.45548721 105.86187733 177.96814346 105.14203358 C179.10030629 103.4793716 180.219537 101.80791202 181.33533096 100.13422108 C182.78044214 98.18646253 184.24452103 96.25392508 185.71033096 94.32172108 C187.96248235 91.28997883 190.14575725 88.21145981 192.33533096 85.13422108 C191.33294633 83.91095602 191.33294633 83.91095602 189.32258129 84.01117325 C188.43120748 84.01209504 187.53983366 84.01301683 186.62144852 84.01396656 C185.60409087 84.01258906 184.58673323 84.01121157 183.53854656 84.00979233 C182.40857282 84.01339044 181.27859907 84.01698854 180.1143837 84.02069569 C178.3151412 84.02051488 178.3151412 84.02051488 176.47955036 84.02033043 C172.57598996 84.02108003 168.67247663 84.02871042 164.76892471 84.03656483 C162.36727293 84.0380341 159.96562083 84.0390549 157.56396866 84.03961658 C148.63358456 84.04487117 139.70320731 84.05883223 130.77283096 84.07172108 C110.82845596 84.09234608 90.88408096 84.11297108 70.33533096 84.13422108 Z M193.33533096 294.13422108 C152.08533096 294.46422108 110.83533096 294.79422108 68.33533096 295.13422108 C68.33533096 295.46422108 68.33533096 295.79422108 68.33533096 296.13422108 C109.91533096 296.13422108 151.49533096 296.13422108 194.33533096 296.13422108 C193.84033096 295.14422108 193.84033096 295.14422108 193.33533096 294.13422108 Z " fill="#FEFEFE" transform="translate(127.66466903686523,66.86577892303467)"/>
<path d="M0 0 C93.06 0 186.12 0 282 0 C282 0.33 282 0.66 282 1 C188.94 1 95.88 1 0 1 C0 0.67 0 0.34 0 0 Z " fill="#808080" transform="translate(124,65)"/>
<path d="M0 0 C91.74 0 183.48 0 278 0 C278 0.33 278 0.66 278 1 C186.26 1 94.52 1 0 1 C0 0.67 0 0.34 0 0 Z " fill="#A9A9A9" transform="translate(126,446)"/>
<path d="M0 0 C0.33 0 0.66 0 1 0 C1 1.65 1 3.3 1 5 C0.67 5 0.34 5 0 5 C0 3.35 0 1.7 0 0 Z " fill="#909090" transform="translate(416,348)"/>
<path d="M0 0 C0.33 0 0.66 0 1 0 C1 1.65 1 3.3 1 5 C0.67 5 0.34 5 0 5 C0 3.35 0 1.7 0 0 Z " fill="#909090" transform="translate(416,158)"/>
<path d="M0 0 C1 4 1 4 1 4 Z " fill="#959595" transform="translate(416,76)"/>
<path d="M0 0 C3 1 3 1 3 1 Z " fill="#8E8E8E" transform="translate(405,445)"/>
<path d="M0 0 C3 1 3 1 3 1 Z " fill="#8E8E8E" transform="translate(122,445)"/>
<path d="" fill="#8E8E8E" transform="translate(0,0)"/>
<path d="" fill="#7F7F7F" transform="translate(0,0)"/>
<path d="" fill="#9C9C9C" transform="translate(0,0)"/>
<path d="M0 0 C2 1 2 1 2 1 Z " fill="#959595" transform="translate(408,444)"/>
<path d="M0 0 C2 1 2 1 2 1 Z " fill="#555555" transform="translate(120,444)"/>
<path d="" fill="#808080" transform="translate(0,0)"/>
<path d="" fill="#808080" transform="translate(0,0)"/>
<path d="" fill="#959595" transform="translate(0,0)"/>
<path d="" fill="#959595" transform="translate(0,0)"/>
<path d="" fill="#959595" transform="translate(0,0)"/>
<path d="" fill="#808080" transform="translate(0,0)"/>
<path d="" fill="#959595" transform="translate(0,0)"/>
<path d="" fill="#959595" transform="translate(0,0)"/>
<path d="" fill="#808080" transform="translate(0,0)"/>
<path d="" fill="#808080" transform="translate(0,0)"/>
<path d="M0 0 C2 1 2 1 2 1 Z " fill="#959595" transform="translate(407,66)"/>
<path d="M0 0 C2 1 2 1 2 1 Z " fill="#959595" transform="translate(121,66)"/>
<path d="" fill="#808080" transform="translate(0,0)"/>
<path d="" fill="#808080" transform="translate(0,0)"/>
<path d="" fill="#808080" transform="translate(0,0)"/>
<path d="" fill="#AAAAAA" transform="translate(0,0)"/>
<path d="" fill="#808080" transform="translate(0,0)"/>
<path d="" fill="#808080" transform="translate(0,0)"/>
<path d="" fill="#808080" transform="translate(0,0)"/>
<path d="" fill="#808080" transform="translate(0,0)"/>
<path d="" fill="#808080" transform="translate(0,0)"/>
<path d="" fill="#808080" transform="translate(0,0)"/>
<path d="" fill="#808080" transform="translate(0,0)"/>
<path d="" fill="#808080" transform="translate(0,0)"/>
<path d="" fill="#808080" transform="translate(0,0)"/>
<path d="" fill="#808080" transform="translate(0,0)"/>
<path d="" fill="#808080" transform="translate(0,0)"/>
<path d="" fill="#AAAAAA" transform="translate(0,0)"/>
<path d="" fill="#808080" transform="translate(0,0)"/>
<path d="" fill="#AAAAAA" transform="translate(0,0)"/>
<path d="" fill="#AAAAAA" transform="translate(0,0)"/>
<path d="" fill="#808080" transform="translate(0,0)"/>
<path d="" fill="#AAAAAA" transform="translate(0,0)"/>
<path d="" fill="#AAAAAA" transform="translate(0,0)"/>
<path d="" fill="#808080" transform="translate(0,0)"/>
<path d="" fill="#AAAAAA" transform="translate(0,0)"/>
<path d="" fill="#AAAAAA" transform="translate(0,0)"/>
<path d="" fill="#808080" transform="translate(0,0)"/>
<path d="" fill="#808080" transform="translate(0,0)"/>
<path d="" fill="#AAAAAA" transform="translate(0,0)"/>
<path d="" fill="#808080" transform="translate(0,0)"/>
<path d="" fill="#808080" transform="translate(0,0)"/>
<path d="" fill="#808080" transform="translate(0,0)"/>
<path d="" fill="#AAAAAA" transform="translate(0,0)"/>
<path d="" fill="#808080" transform="translate(0,0)"/>
<path d="" fill="#808080" transform="translate(0,0)"/>
<path d="" fill="#808080" transform="translate(0,0)"/>
<path d="" fill="#AAAAAA" transform="translate(0,0)"/>
<path d="" fill="#AAAAAA" transform="translate(0,0)"/>
<path d="" fill="#808080" transform="translate(0,0)"/>
<path d="" fill="#AAAAAA" transform="translate(0,0)"/>
<path d="" fill="#808080" transform="translate(0,0)"/>
<path d="" fill="#808080" transform="translate(0,0)"/>
<path d="" fill="#808080" transform="translate(0,0)"/>
<path d="" fill="#AAAAAA" transform="translate(0,0)"/>
<path d="" fill="#AAAAAA" transform="translate(0,0)"/>
<path d="" fill="#808080" transform="translate(0,0)"/>
<path d="" fill="#808080" transform="translate(0,0)"/>
<path d="" fill="#808080" transform="translate(0,0)"/>
<path d="" fill="#808080" transform="translate(0,0)"/>
<path d="" fill="#AAAAAA" transform="translate(0,0)"/>
<path d="" fill="#808080" transform="translate(0,0)"/>
<path d="" fill="#808080" transform="translate(0,0)"/>
<path d="" fill="#808080" transform="translate(0,0)"/>
<path d="" fill="#AAAAAA" transform="translate(0,0)"/>
<path d="" fill="#AAAAAA" transform="translate(0,0)"/>
<path d="" fill="#808080" transform="translate(0,0)"/>
<path d="" fill="#AAAAAA" transform="translate(0,0)"/>
<path d="" fill="#808080" transform="translate(0,0)"/>
<path d="" fill="#FFFFFF" transform="translate(0,0)"/>
<path d="" fill="#AAAAAA" transform="translate(0,0)"/>
<path d="" fill="#808080" transform="translate(0,0)"/>
<path d="" fill="#808080" transform="translate(0,0)"/>
<path d="" fill="#808080" transform="translate(0,0)"/>
<path d="" fill="#AAAAAA" transform="translate(0,0)"/>
<path d="" fill="#AAAAAA" transform="translate(0,0)"/>
<path d="" fill="#808080" transform="translate(0,0)"/>
<path d="" fill="#808080" transform="translate(0,0)"/>
<path d="" fill="#808080" transform="translate(0,0)"/>
<path d="" fill="#808080" transform="translate(0,0)"/>
<path d="" fill="#AAAAAA" transform="translate(0,0)"/>
<path d="" fill="#AAAAAA" transform="translate(0,0)"/>
<path d="" fill="#808080" transform="translate(0,0)"/>
<path d="" fill="#808080" transform="translate(0,0)"/>
<path d="" fill="#AAAAAA" transform="translate(0,0)"/>
<path d="" fill="#808080" transform="translate(0,0)"/>
<path d="" fill="#808080" transform="translate(0,0)"/>
<path d="" fill="#808080" transform="translate(0,0)"/>
<path d="" fill="#AAAAAA" transform="translate(0,0)"/>
<path d="" fill="#AAAAAA" transform="translate(0,0)"/>
<path d="" fill="#808080" transform="translate(0,0)"/>
<path d="" fill="#808080" transform="translate(0,0)"/>
<path d="" fill="#808080" transform="translate(0,0)"/>
<path d="" fill="#AAAAAA" transform="translate(0,0)"/>
<path d="" fill="#AAAAAA" transform="translate(0,0)"/>
<path d="" fill="#AAAAAA" transform="translate(0,0)"/>
<path d="" fill="#808080" transform="translate(0,0)"/>
<path d="" fill="#808080" transform="translate(0,0)"/>
<path d="" fill="#808080" transform="translate(0,0)"/>
<path d="" fill="#C0C0C0" transform="translate(0,0)"/>
<path d="" fill="#AAAAAA" transform="translate(0,0)"/>
<path d="" fill="#808080" transform="translate(0,0)"/>
<path d="" fill="#808080" transform="translate(0,0)"/>
<path d="" fill="#808080" transform="translate(0,0)"/>
<path d="" fill="#AAAAAA" transform="translate(0,0)"/>
<path d="" fill="#AAAAAA" transform="translate(0,0)"/>
<path d="" fill="#808080" transform="translate(0,0)"/>
<path d="" fill="#808080" transform="translate(0,0)"/>
<path d="" fill="#AAAAAA" transform="translate(0,0)"/>
<path d="" fill="#AAAAAA" transform="translate(0,0)"/>
<path d="" fill="#808080" transform="translate(0,0)"/>
<path d="" fill="#808080" transform="translate(0,0)"/>
<path d="" fill="#808080" transform="translate(0,0)"/>
<path d="" fill="#AAAAAA" transform="translate(0,0)"/>
<path d="" fill="#808080" transform="translate(0,0)"/>
<path d="" fill="#AAAAAA" transform="translate(0,0)"/>
<path d="" fill="#AAAAAA" transform="translate(0,0)"/>
<path d="" fill="#808080" transform="translate(0,0)"/>
<path d="" fill="#808080" transform="translate(0,0)"/>
<path d="" fill="#AAAAAA" transform="translate(0,0)"/>
<path d="" fill="#AAAAAA" transform="translate(0,0)"/>
<path d="" fill="#AAAAAA" transform="translate(0,0)"/>
<path d="" fill="#808080" transform="translate(0,0)"/>
<path d="" fill="#808080" transform="translate(0,0)"/>
<path d="" fill="#808080" transform="translate(0,0)"/>
<path d="" fill="#AAAAAA" transform="translate(0,0)"/>
<path d="" fill="#AAAAAA" transform="translate(0,0)"/>
<path d="" fill="#808080" transform="translate(0,0)"/>
<path d="" fill="#808080" transform="translate(0,0)"/>
<path d="" fill="#808080" transform="translate(0,0)"/>
<path d="" fill="#808080" transform="translate(0,0)"/>
<path d="" fill="#AAAAAA" transform="translate(0,0)"/>
<path d="" fill="#808080" transform="translate(0,0)"/>
<path d="" fill="#808080" transform="translate(0,0)"/>
<path d="" fill="#808080" transform="translate(0,0)"/>
<path d="" fill="#808080" transform="translate(0,0)"/>
<path d="" fill="#808080" transform="translate(0,0)"/>
<path d="" fill="#808080" transform="translate(0,0)"/>
<path d="" fill="#808080" transform="translate(0,0)"/>
<path d="" fill="#AAAAAA" transform="translate(0,0)"/>
<path d="" fill="#808080" transform="translate(0,0)"/>
<path d="" fill="#AAAAAA" transform="translate(0,0)"/>
<path d="" fill="#808080" transform="translate(0,0)"/>
<path d="" fill="#808080" transform="translate(0,0)"/>
<path d="" fill="#808080" transform="translate(0,0)"/>
<path d="" fill="#AAAAAA" transform="translate(0,0)"/>
<path d="" fill="#808080" transform="translate(0,0)"/>
<path d="" fill="#AAAAAA" transform="translate(0,0)"/>
<path d="" fill="#808080" transform="translate(0,0)"/>
<path d="" fill="#AAAAAA" transform="translate(0,0)"/>
<path d="" fill="#AAAAAA" transform="translate(0,0)"/>
<path d="" fill="#808080" transform="translate(0,0)"/>
<path d="" fill="#AAAAAA" transform="translate(0,0)"/>
<path d="" fill="#808080" transform="translate(0,0)"/>
<path d="" fill="#AAAAAA" transform="translate(0,0)"/>
<path d="" fill="#808080" transform="translate(0,0)"/>
<path d="" fill="#808080" transform="translate(0,0)"/>
<path d="" fill="#808080" transform="translate(0,0)"/>
<path d="" fill="#808080" transform="translate(0,0)"/>
<path d="" fill="#AAAAAA" transform="translate(0,0)"/>
<path d="" fill="#808080" transform="translate(0,0)"/>
<path d="" fill="#808080" transform="translate(0,0)"/>
<path d="" fill="#808080" transform="translate(0,0)"/>
<path d="" fill="#AAAAAA" transform="translate(0,0)"/>
<path d="" fill="#808080" transform="translate(0,0)"/>
<path d="" fill="#AAAAAA" transform="translate(0,0)"/>
<path d="" fill="#808080" transform="translate(0,0)"/>
<path d="" fill="#AAAAAA" transform="translate(0,0)"/>
<path d="" fill="#808080" transform="translate(0,0)"/>
<path d="" fill="#AAAAAA" transform="translate(0,0)"/>
<path d="" fill="#808080" transform="translate(0,0)"/>
<path d="" fill="#AAAAAA" transform="translate(0,0)"/>
<path d="" fill="#808080" transform="translate(0,0)"/>
<path d="" fill="#AAAAAA" transform="translate(0,0)"/>
<path d="" fill="#808080" transform="translate(0,0)"/>
<path d="" fill="#808080" transform="translate(0,0)"/>
<path d="" fill="#808080" transform="translate(0,0)"/>
<path d="" fill="#AAAAAA" transform="translate(0,0)"/>
<path d="" fill="#808080" transform="translate(0,0)"/>
<path d="" fill="#AAAAAA" transform="translate(0,0)"/>
<path d="" fill="#808080" transform="translate(0,0)"/>
<path d="" fill="#808080" transform="translate(0,0)"/>
<path d="" fill="#808080" transform="translate(0,0)"/>
<path d="" fill="#AAAAAA" transform="translate(0,0)"/>
<path d="" fill="#808080" transform="translate(0,0)"/>
<path d="" fill="#808080" transform="translate(0,0)"/>
<path d="" fill="#808080" transform="translate(0,0)"/>
<path d="" fill="#AAAAAA" transform="translate(0,0)"/>
<path d="" fill="#808080" transform="translate(0,0)"/>
<path d="" fill="#AAAAAA" transform="translate(0,0)"/>
<path d="" fill="#808080" transform="translate(0,0)"/>
<path d="" fill="#AAAAAA" transform="translate(0,0)"/>
<path d="" fill="#FFFFFF" transform="translate(0,0)"/>
<path d="" fill="#AAAAAA" transform="translate(0,0)"/>
<path d="" fill="#808080" transform="translate(0,0)"/>
<path d="" fill="#808080" transform="translate(0,0)"/>
<path d="" fill="#808080" transform="translate(0,0)"/>
<path d="" fill="#AAAAAA" transform="translate(0,0)"/>
<path d="" fill="#808080" transform="translate(0,0)"/>
<path d="" fill="#808080" transform="translate(0,0)"/>
<path d="" fill="#808080" transform="translate(0,0)"/>
<path d="" fill="#AAAAAA" transform="translate(0,0)"/>
<path d="" fill="#808080" transform="translate(0,0)"/>
<path d="" fill="#AAAAAA" transform="translate(0,0)"/>
<path d="" fill="#808080" transform="translate(0,0)"/>
<path d="" fill="#808080" transform="translate(0,0)"/>
<path d="" fill="#AAAAAA" transform="translate(0,0)"/>
<path d="" fill="#808080" transform="translate(0,0)"/>
<path d="" fill="#AAAAAA" transform="translate(0,0)"/>
<path d="" fill="#808080" transform="translate(0,0)"/>
<path d="" fill="#808080" transform="translate(0,0)"/>
<path d="" fill="#AAAAAA" transform="translate(0,0)"/>
<path d="" fill="#808080" transform="translate(0,0)"/>
<path d="" fill="#AAAAAA" transform="translate(0,0)"/>
<path d="" fill="#808080" transform="translate(0,0)"/>
<path d="" fill="#808080" transform="translate(0,0)"/>
<path d="" fill="#AAAAAA" transform="translate(0,0)"/>
<path d="" fill="#808080" transform="translate(0,0)"/>
<path d="" fill="#808080" transform="translate(0,0)"/>
<path d="" fill="#808080" transform="translate(0,0)"/>
<path d="" fill="#808080" transform="translate(0,0)"/>
<path d="" fill="#808080" transform="translate(0,0)"/>
<path d="" fill="#808080" transform="translate(0,0)"/>
<path d="" fill="#808080" transform="translate(0,0)"/>
<path d="" fill="#808080" transform="translate(0,0)"/>
<path d="" fill="#FFFFFF" transform="translate(0,0)"/>
<path d="" fill="#808080" transform="translate(0,0)"/>
<path d="" fill="#AAAAAA" transform="translate(0,0)"/>
<path d="" fill="#AAAAAA" transform="translate(0,0)"/>
<path d="" fill="#AAAAAA" transform="translate(0,0)"/>
<path d="" fill="#AAAAAA" transform="translate(0,0)"/>
<path d="" fill="#AAAAAA" transform="translate(0,0)"/>
<path d="" fill="#808080" transform="translate(0,0)"/>
<path d="" fill="#AAAAAA" transform="translate(0,0)"/>
<path d="" fill="#808080" transform="translate(0,0)"/>
<path d="" fill="#AAAAAA" transform="translate(0,0)"/>
<path d="" fill="#808080" transform="translate(0,0)"/>
<path d="" fill="#808080" transform="translate(0,0)"/>
<path d="" fill="#000000" transform="translate(0,0)"/>
<path d="" fill="#808080" transform="translate(0,0)"/>
<path d="" fill="#808080" transform="translate(0,0)"/>
<path d="" fill="#808080" transform="translate(0,0)"/>
<path d="" fill="#AAAAAA" transform="translate(0,0)"/>
</svg>
